# xmcd
#
# Track frame offsets: 
#        150
#        19608
#        35846
#        50475
#        64737
#        83069
#        108190
#        118048
#        138842
#        159924
#        171900
#        188709
#        209675
#        223313
#
# Disc length: 3261 seconds
#
# Revision: 0
# Processed by: cddbd v1.5.2PL0 Copyright (c) Steve Scherf et al.
# Submitted via: ExactAudioCopy v0.99pb5
#
DISCID=c60cbb0e
DTITLE=Yvonne Sanchez, Pedro Tagliani - Songs About Love
DYEAR=2011
DGENRE=
TTITLE0=Once I Loved
TTITLE1=My Cherie Amour
TTITLE2=You And The Night And The Music
TTITLE3=The Look Of Love
TTITLE4=Tenderly
TTITLE5=Cry Me A River
TTITLE6=Voce e Eu
TTITLE7=Feitico da Vila
TTITLE8=Diary Of My Soul
TTITLE9=The Beat Of Heat
TTITLE10=Fotografia
TTITLE11=Speak Low
TTITLE12=Night And Day
TTITLE13=Corcovado
EXTD=
EXTT0=
EXTT1=
EXTT2=
EXTT3=
EXTT4=
EXTT5=
EXTT6=
EXTT7=
EXTT8=
EXTT9=
EXTT10=
EXTT11=
EXTT12=
EXTT13=
PLAYORDER=
